<svg width="60" height="60" viewBox="0 0 60 60" fill="none" xmlns="http://www.w3.org/2000/svg">
<rect x="0.5" y="0.5" width="59" height="59" rx="29.5" fill="#202531"/>
<rect x="0.5" y="0.5" width="59" height="59" rx="29.5" stroke="white"/>
<g clip-path="url(#clip0_1827_1704)">
<path d="M40.8048 38.3334C40.357 38.3334 39.9823 38.2283 39.667 38.0501C39.4706 38.0775 39.2741 38.1003 39.0685 38.1003H25.3058C20.4897 38.1003 16.5693 34.1785 16.5693 29.3608C16.5693 24.543 20.4897 20.612 25.3058 20.612C28.2164 20.612 30.8026 22.029 32.3927 24.2322C33.3751 23.0255 34.3987 21.8462 35.3765 20.6349C32.9319 17.8101 29.3222 16.0411 25.3058 16.0411C17.9675 16.0411 12 22.0153 12 29.3562C12 36.6971 17.9675 42.6667 25.3058 42.6667H39.0685C42.2715 42.6667 45.068 40.9206 46.5712 38.3334H40.8048Z" fill="#0091B5"/>
<path d="M39.06 25.2418C38.7069 25.2418 38.3538 25.2647 38.0098 25.306L34.3658 31.689L37.2855 30.2492C37.8513 29.9694 38.4489 29.8273 39.0645 29.8273C41.3097 29.8273 43.1385 31.6798 43.1385 33.9542C43.1385 36.2286 41.3097 38.0811 39.0645 38.0811H25.4302C25.4076 38.0811 24.3996 38.0811 24.3769 38.0811L24.3769 42.6666C23.3916 42.6666 25.4302 42.6666 25.4302 42.6666H39.0645C43.8084 42.6666 47.6651 38.7598 47.6651 33.9542C47.6651 29.1486 43.8084 25.2418 39.0645 25.2418H39.06Z" fill="#44DFD7"/>
<path d="M39.1263 29.8387C40.3691 29.8387 41.4429 30.3894 42.1859 31.2827C43.2756 30.2443 44.3797 29.1834 45.4785 28.154C43.9114 26.3809 41.6569 25.2418 39.1218 25.2418C38.7705 25.2418 38.317 25.2755 37.9748 25.3163L34.3511 31.7159L37.3793 30.2238C37.9421 29.9471 38.5139 29.8387 39.1263 29.8387Z" fill="url(#paint0_linear_1827_1704)"/>
<path d="M24.3919 38.082C20.1836 37.6478 16.8617 34.2151 16.583 29.9641H12C12.2879 36.7382 17.6614 42.2141 24.3919 42.6667V38.082Z" fill="url(#paint1_linear_1827_1704)"/>
<path d="M38.0037 25.385C36.3482 20.0472 31.4636 16.256 25.6987 16.0963C25.6987 17.6201 25.7215 19.1439 25.7991 20.6676C30.0817 20.8958 33.5707 24.1714 34.0085 28.4827L34.3369 31.7401" fill="url(#paint2_linear_1827_1704)"/>
</g>
<defs>
<linearGradient id="paint0_linear_1827_1704" x1="38.1483" y1="27.7448" x2="42.3808" y2="29.9541" gradientUnits="userSpaceOnUse">
<stop stop-color="#034D5F"/>
<stop offset="1" stop-color="#44DFD7"/>
</linearGradient>
<linearGradient id="paint1_linear_1827_1704" x1="15.4127" y1="31.4513" x2="22.8282" y2="41.1162" gradientUnits="userSpaceOnUse">
<stop stop-color="#0091B5"/>
<stop offset="1" stop-color="#44DFD7"/>
</linearGradient>
<linearGradient id="paint2_linear_1827_1704" x1="31.1543" y1="20.1878" x2="35.0558" y2="26.7292" gradientUnits="userSpaceOnUse">
<stop stop-color="#0091B5"/>
<stop offset="1" stop-color="#034C5E"/>
</linearGradient>
<clipPath id="clip0_1827_1704">
<rect width="35.8095" height="26.6667" fill="white" transform="translate(12 16)"/>
</clipPath>
</defs>
</svg>
