<svg width="109" height="32" viewBox="0 0 109 32" fill="none" xmlns="http://www.w3.org/2000/svg">
<g clip-path="url(#clip0_1836_1799)">
<path d="M28.8048 25.0001C28.357 25.0001 27.9823 24.895 27.667 24.7167C27.4706 24.7442 27.2741 24.767 27.0685 24.767H13.3058C8.48974 24.767 4.56929 20.8452 4.56929 16.0274C4.56929 11.2097 8.48974 7.27873 13.3058 7.27873C16.2164 7.27873 18.8026 8.69571 20.3927 10.8989C21.3751 9.69217 22.3987 8.51288 23.3765 7.30159C20.9319 4.47677 17.3222 2.70782 13.3058 2.70782C5.96749 2.70782 0 8.682 0 16.0229C0 23.3637 5.96749 29.3334 13.3058 29.3334H27.0685C30.2715 29.3334 33.068 27.5873 34.5712 25.0001H28.8048Z" fill="#0091B5"/>
<path d="M27.06 11.9086C26.7069 11.9086 26.3538 11.9315 26.0098 11.9728L22.3658 18.3557L25.2855 16.9159C25.8513 16.6362 26.4489 16.494 27.0645 16.494C29.3097 16.494 31.1385 18.3466 31.1385 20.621C31.1385 22.8954 29.3097 24.7479 27.0645 24.7479H13.4302C13.4076 24.7479 12.3996 24.7479 12.3769 24.7479L12.3769 29.3334C11.3916 29.3334 13.4302 29.3334 13.4302 29.3334H27.0645C31.8084 29.3334 35.6651 25.4265 35.6651 20.621C35.6651 15.8154 31.8084 11.9086 27.0645 11.9086H27.06Z" fill="#44DFD7"/>
<path d="M27.1263 16.5054C28.3691 16.5054 29.4429 17.0561 30.1859 17.9495C31.2756 16.911 32.3797 15.8501 33.4785 14.8207C31.9114 13.0476 29.6569 11.9086 27.1218 11.9086C26.7705 11.9086 26.317 11.9422 25.9748 11.983L22.3511 18.3827L25.3793 16.8905C25.9421 16.6139 26.5139 16.5054 27.1263 16.5054Z" fill="url(#paint0_linear_1836_1799)"/>
<path d="M12.3919 24.7487C8.1836 24.3145 4.86172 20.8817 4.583 16.6308H0C0.287865 23.4049 5.66135 28.8808 12.3919 29.3333V24.7487Z" fill="url(#paint1_linear_1836_1799)"/>
<path d="M26.0037 12.0516C24.3482 6.71381 19.4636 2.92262 13.6987 2.76294C13.6987 4.28672 13.7215 5.81049 13.7991 7.33427C18.0817 7.56238 21.5707 10.838 22.0085 15.1493L22.3369 18.4067" fill="url(#paint2_linear_1836_1799)"/>
</g>
<path d="M50.0921 16.2082C46.7083 16.2082 44.0187 13.7789 44.0187 10.2216C44.0187 6.66436 46.7083 4.23502 50.0921 4.23502C52.7296 4.23502 54.2046 5.62321 55.0202 7.06347L52.9032 8.10462C52.4173 7.16759 51.3761 6.42143 50.0921 6.42143C48.0792 6.42143 46.5522 8.03521 46.5522 10.2216C46.5522 12.408 48.0792 14.0218 50.0921 14.0218C51.3761 14.0218 52.4173 13.293 52.9032 12.3386L55.0202 13.3624C54.1872 14.8027 52.7296 16.2082 50.0921 16.2082ZM60.3218 16.2082C57.5627 16.2082 55.8969 14.1953 55.8969 11.8007C55.8969 9.42341 57.5627 7.41052 60.3218 7.41052C63.0982 7.41052 64.764 9.42341 64.764 11.8007C64.764 14.1953 63.0982 16.2082 60.3218 16.2082ZM60.3218 14.2474C61.6926 14.2474 62.4735 13.1195 62.4735 11.8007C62.4735 10.4993 61.6926 9.37135 60.3218 9.37135C58.9509 9.37135 58.1874 10.4993 58.1874 11.8007C58.1874 13.1195 58.9509 14.2474 60.3218 14.2474ZM68.6027 16H66.3989V4.42589H68.6027V16ZM81.3382 16H78.3883L75.4904 11.766L72.5752 16H69.6426L73.8419 10.0655L69.9029 4.42589H72.8355L75.4904 8.38226L78.1106 4.42589H81.0779L77.1389 10.0481L81.3382 16ZM81.6326 14.3689L82.9861 12.4948C83.8017 13.3451 85.0684 14.0565 86.6649 14.0565C88.0184 14.0565 88.6777 13.4145 88.6777 12.7551C88.6777 11.8875 87.6713 11.5925 86.3352 11.2801C84.4437 10.8463 82.0144 10.3257 82.0144 7.74022C82.0144 5.81409 83.6802 4.25237 86.4046 4.25237C88.2439 4.25237 89.771 4.80765 90.9162 5.86615L89.5454 7.67081C88.6083 6.80318 87.359 6.40408 86.231 6.40408C85.1205 6.40408 84.5305 6.88995 84.5305 7.58405C84.5305 8.36491 85.5022 8.60784 86.8384 8.92019C88.7472 9.354 91.1765 9.92663 91.1765 12.4948C91.1765 14.6118 89.6668 16.2082 86.5434 16.2082C84.3223 16.2082 82.7258 15.4621 81.6326 14.3689ZM92.3699 19.2796L92.6996 17.3014C92.8905 17.3882 93.1855 17.4403 93.3937 17.4403C93.9663 17.4403 94.3481 17.2841 94.5563 16.8329L94.8687 16.1215L91.4676 7.61875H93.8275L96.0139 13.4492L98.2003 7.61875H100.578L96.6386 17.3708C96.0139 18.9499 94.9034 19.3664 93.4631 19.4011C93.2028 19.4011 92.6475 19.349 92.3699 19.2796ZM100.833 14.9068L101.787 13.3624C102.394 13.9351 103.644 14.5077 104.685 14.5077C105.639 14.5077 106.09 14.178 106.09 13.6574C106.09 13.0674 105.362 12.8592 104.407 12.6683C102.967 12.3907 101.11 12.0436 101.11 10.0481C101.11 8.64255 102.342 7.41052 104.546 7.41052C105.969 7.41052 107.097 7.89639 107.912 8.55578L107.045 10.0655C106.542 9.52752 105.587 9.09371 104.563 9.09371C103.765 9.09371 103.245 9.3887 103.245 9.87457C103.245 10.3951 103.904 10.586 104.841 10.7769C106.281 11.0545 108.207 11.4363 108.207 13.5186C108.207 15.063 106.906 16.2082 104.581 16.2082C103.123 16.2082 101.718 15.7224 100.833 14.9068Z" fill="white"/>
<path d="M48.2913 30.1504C45.9101 30.1504 44.0052 28.3959 44.0052 25.8267C44.0052 23.2576 45.9101 21.5031 48.2913 21.5031C49.933 21.5031 50.9607 22.2926 51.6123 23.2701L50.5471 23.8341C50.1085 23.1323 49.2813 22.6184 48.2913 22.6184C46.5994 22.6184 45.296 23.9469 45.296 25.8267C45.296 27.694 46.5994 29.035 48.2913 29.035C49.2813 29.035 50.1085 28.5212 50.5471 27.8194L51.6123 28.3833C50.9481 29.3609 49.933 30.1504 48.2913 30.1504ZM53.9648 30H52.8369V21.6409H53.9648V30ZM58.4438 30.1504C56.564 30.1504 55.3859 28.7217 55.3859 26.9672C55.3859 25.2252 56.564 23.7965 58.4438 23.7965C60.3362 23.7965 61.5017 25.2252 61.5017 26.9672C61.5017 28.7217 60.3362 30.1504 58.4438 30.1504ZM58.4438 29.1478C59.6595 29.1478 60.3237 28.1201 60.3237 26.9672C60.3237 25.8267 59.6595 24.7991 58.4438 24.7991C57.2407 24.7991 56.564 25.8267 56.564 26.9672C56.564 28.1201 57.2407 29.1478 58.4438 29.1478ZM68.1472 30H67.0193V29.1729C66.5556 29.6742 65.7911 30.1504 64.8637 30.1504C63.5729 30.1504 62.9337 29.4987 62.9337 28.2204V23.9469H64.0617V27.8444C64.0617 28.847 64.563 29.1478 65.34 29.1478C66.0418 29.1478 66.6809 28.7468 67.0193 28.2956V23.9469H68.1472V30ZM75.3733 30H74.2454V29.1353C73.7942 29.7368 73.0673 30.1504 72.2653 30.1504C70.6862 30.1504 69.5583 28.9598 69.5583 26.9797C69.5583 25.0372 70.6862 23.7965 72.2653 23.7965C73.0423 23.7965 73.7566 24.1725 74.2454 24.8241V21.6409H75.3733V30ZM74.2454 28.2705V25.6889C73.9321 25.2001 73.2553 24.7991 72.566 24.7991C71.4381 24.7991 70.7363 25.7139 70.7363 26.9797C70.7363 28.2329 71.4381 29.1478 72.566 29.1478C73.2553 29.1478 73.9321 28.7593 74.2454 28.2705Z" fill="#42DCD6"/>
<defs>
<linearGradient id="paint0_linear_1836_1799" x1="26.1483" y1="14.4116" x2="30.3808" y2="16.6208" gradientUnits="userSpaceOnUse">
<stop stop-color="#034D5F"/>
<stop offset="1" stop-color="#44DFD7"/>
</linearGradient>
<linearGradient id="paint1_linear_1836_1799" x1="3.41272" y1="18.1179" x2="10.8282" y2="27.7829" gradientUnits="userSpaceOnUse">
<stop stop-color="#0091B5"/>
<stop offset="1" stop-color="#44DFD7"/>
</linearGradient>
<linearGradient id="paint2_linear_1836_1799" x1="19.1543" y1="6.8544" x2="23.0558" y2="13.3959" gradientUnits="userSpaceOnUse">
<stop stop-color="#0091B5"/>
<stop offset="1" stop-color="#034C5E"/>
</linearGradient>
<clipPath id="clip0_1836_1799">
<rect width="35.8095" height="26.6667" fill="white" transform="translate(0 2.66669)"/>
</clipPath>
</defs>
</svg>
