<svg width="60" height="60" viewBox="0 0 60 60" fill="none" xmlns="http://www.w3.org/2000/svg">
<rect x="0.5" y="0.5" width="59" height="59" rx="29.5" fill="#202531"/>
<rect x="0.5" y="0.5" width="59" height="59" rx="29.5" stroke="white"/>
<g clip-path="url(#clip0_1827_1713)">
<path d="M21.0225 15.1248C23.6907 15.1248 25.8544 17.2876 25.8545 19.9558C25.8545 20.2395 25.8291 20.5176 25.7822 20.7878L33.9932 25.3894C35.1611 24.1403 36.823 23.3582 38.668 23.3582C42.2023 23.3583 45.0674 26.2241 45.0674 29.7585C45.0672 33.2928 42.2022 36.1578 38.668 36.158C36.8022 36.1579 35.1239 35.3585 33.9541 34.0847L25.7412 38.6873C25.815 39.0228 25.8535 39.3715 25.8535 39.7292C25.8535 42.3975 23.6907 44.5613 21.0225 44.5613C18.3543 44.5612 16.1915 42.3974 16.1914 39.7292C16.1916 37.0612 18.3544 34.8983 21.0225 34.8982C22.3262 34.8982 23.5088 35.4152 24.3779 36.2546L32.5596 31.6697C32.3709 31.0661 32.2676 30.4243 32.2676 29.7585C32.2676 29.1314 32.3602 28.5256 32.5283 27.9529L24.4072 23.4031C23.5355 24.259 22.3406 24.7869 21.0225 24.7869C18.3544 24.7867 16.1915 22.6239 16.1914 19.9558C16.1915 17.2877 18.3544 15.125 21.0225 15.1248ZM20.8828 37.8113C19.7459 37.8113 18.8242 38.733 18.8242 39.8699C18.8244 41.0066 19.746 41.9285 20.8828 41.9285C22.0196 41.9284 22.9412 41.0066 22.9414 39.8699C22.9414 38.733 22.0197 37.8113 20.8828 37.8113ZM38.6396 27.1765C37.178 27.1765 35.9933 28.3613 35.9932 29.823C35.9932 31.2848 37.1779 32.4695 38.6396 32.4695C40.1014 32.4695 41.2861 31.2847 41.2861 29.823C41.286 28.3613 40.1013 27.1765 38.6396 27.1765ZM20.9668 17.9333C19.83 17.9333 18.9084 18.8552 18.9082 19.9919C18.9082 21.1289 19.8299 22.0505 20.9668 22.0505C22.1037 22.0505 23.0254 21.1289 23.0254 19.9919C23.0252 18.8552 22.1036 17.9334 20.9668 17.9333Z" fill="url(#paint0_linear_1827_1713)"/>
</g>
<defs>
<linearGradient id="paint0_linear_1827_1713" x1="22.1921" y1="20.8829" x2="33.8171" y2="34.7708" gradientUnits="userSpaceOnUse">
<stop stop-color="#0091B5"/>
<stop offset="0.5" stop-color="#044E60"/>
<stop offset="1" stop-color="#42DCD6"/>
</linearGradient>
<clipPath id="clip0_1827_1713">
<rect width="30" height="29" fill="white" transform="translate(15 15.5)"/>
</clipPath>
</defs>
</svg>
