<svg width="109" height="37" viewBox="0 0 109 37" fill="none" xmlns="http://www.w3.org/2000/svg">
<path d="M4.83105 3.42572C7.49928 3.42572 9.66299 5.58858 9.66309 8.25677C9.66308 8.54043 9.63772 8.81857 9.59082 9.08881L17.8018 13.6904C18.9697 12.4413 20.6316 11.6591 22.4766 11.6591C26.0109 11.6593 28.876 14.5251 28.876 18.0595C28.8758 21.5938 26.0108 24.4588 22.4766 24.4589C20.6108 24.4589 18.9325 23.6595 17.7627 22.3857L9.5498 26.9882C9.62359 27.3238 9.66208 27.6725 9.66211 28.0302C9.66205 30.6984 7.4993 32.8622 4.83105 32.8622C2.16287 32.8622 6.21063e-05 30.6984 0 28.0302C0.000196738 25.3621 2.16296 23.1992 4.83105 23.1992C6.13478 23.1992 7.3174 23.7162 8.18652 24.5556L16.3682 19.9706C16.1795 19.367 16.0762 18.7253 16.0762 18.0595C16.0762 17.4324 16.1688 16.8266 16.3369 16.2538L8.21582 11.704C7.34412 12.5599 6.14922 13.0878 4.83105 13.0878C2.16299 13.0876 6.21115e-05 10.9249 0 8.25677C9.6698e-05 5.5887 2.16301 3.42593 4.83105 3.42572ZM4.69141 26.1122C3.55449 26.1122 2.63281 27.0339 2.63281 28.1708C2.63302 29.3076 3.55462 30.2294 4.69141 30.2294C5.82815 30.2294 6.74979 29.3075 6.75 28.1708C6.75 27.0339 5.82828 26.1123 4.69141 26.1122ZM22.4482 15.4775C20.9866 15.4775 19.8019 16.6623 19.8018 18.124C19.8018 19.5857 20.9865 20.7704 22.4482 20.7704C23.91 20.7704 25.0947 19.5857 25.0947 18.124C25.0946 16.6623 23.9099 15.4775 22.4482 15.4775ZM4.77539 6.23431C3.63861 6.23431 2.71702 7.15618 2.7168 8.29291C2.7168 9.42983 3.63847 10.3515 4.77539 10.3515C5.9123 10.3515 6.83398 9.42982 6.83398 8.29291C6.83376 7.15618 5.91216 6.23432 4.77539 6.23431Z" fill="url(#paint0_linear_1836_1878)"/>
<path d="M46.5258 17.2217C42.9236 17.2217 40.0602 14.6354 40.0602 10.8484C40.0602 7.06143 42.9236 4.47519 46.5258 4.47519C49.3337 4.47519 50.904 5.95304 51.7722 7.48631L49.5185 8.59471C49.0012 7.59715 47.8928 6.80281 46.5258 6.80281C44.3829 6.80281 42.7573 8.52081 42.7573 10.8484C42.7573 13.1761 44.3829 14.8941 46.5258 14.8941C47.8928 14.8941 49.0012 14.1182 49.5185 13.1022L51.7722 14.1921C50.8855 15.7254 49.3337 17.2217 46.5258 17.2217ZM57.4162 17.2217C54.479 17.2217 52.7055 15.0788 52.7055 12.5295C52.7055 9.99867 54.479 7.85578 57.4162 7.85578C60.3719 7.85578 62.1453 9.99867 62.1453 12.5295C62.1453 15.0788 60.3719 17.2217 57.4162 17.2217ZM57.4162 15.1342C58.8756 15.1342 59.7069 13.9335 59.7069 12.5295C59.7069 11.144 58.8756 9.94325 57.4162 9.94325C55.9568 9.94325 55.144 11.144 55.144 12.5295C55.144 13.9335 55.9568 15.1342 57.4162 15.1342ZM66.2319 17H63.8858V4.67839H66.2319V17ZM79.79 17H76.6495L73.5645 12.4925L70.461 17H67.339L71.8095 10.6822L67.6161 4.67839H70.7381L73.5645 8.89028L76.3539 4.67839H79.5129L75.3194 10.6637L79.79 17ZM80.1034 15.2635L81.5443 13.2684C82.4126 14.1736 83.7611 14.931 85.4606 14.931C86.9015 14.931 87.6035 14.2475 87.6035 13.5455C87.6035 12.6219 86.5321 12.3078 85.1096 11.9753C83.0961 11.5135 80.5098 10.9593 80.5098 8.20677C80.5098 6.15625 82.2833 4.49366 85.1835 4.49366C87.1417 4.49366 88.7673 5.0848 89.9866 6.21167L88.5272 8.13288C87.5296 7.20922 86.1996 6.78433 84.9988 6.78433C83.8165 6.78433 83.1884 7.30158 83.1884 8.04051C83.1884 8.8718 84.2229 9.13043 85.6454 9.46294C87.6774 9.92477 90.2637 10.5344 90.2637 13.2684C90.2637 15.5221 88.6565 17.2217 85.3313 17.2217C82.9668 17.2217 81.2672 16.4273 80.1034 15.2635ZM91.5341 20.4914L91.8851 18.3855C92.0883 18.4779 92.4024 18.5333 92.624 18.5333C93.2337 18.5333 93.6401 18.367 93.8617 17.8867L94.1943 17.1293L90.5735 8.07746H93.0859L95.4135 14.2844L97.7411 8.07746H100.272L96.0785 18.4594C95.4135 20.1404 94.2312 20.5838 92.6979 20.6207C92.4208 20.6207 91.8297 20.5653 91.5341 20.4914ZM100.543 15.8362L101.559 14.1921C102.206 14.8017 103.536 15.4113 104.644 15.4113C105.66 15.4113 106.141 15.0603 106.141 14.5061C106.141 13.878 105.365 13.6564 104.349 13.4532C102.816 13.1576 100.839 12.7881 100.839 10.6637C100.839 9.16737 102.151 7.85578 104.497 7.85578C106.011 7.85578 107.212 8.37303 108.08 9.07501L107.157 10.6822C106.621 10.1095 105.605 9.64768 104.515 9.64768C103.665 9.64768 103.111 9.96172 103.111 10.479C103.111 11.0332 103.813 11.2364 104.811 11.4396C106.344 11.7351 108.395 12.1416 108.395 14.3583C108.395 16.0024 107.009 17.2217 104.534 17.2217C102.982 17.2217 101.486 16.7044 100.543 15.8362Z" fill="white"/>
<path d="M46.3965 32.2877H40.4194V23.3887H46.3965V24.5628H41.7536V27.1644H46.3031V28.3385H41.7536V31.1136H46.3965V32.2877ZM53.5909 32.2877H52.3902V28.1651C52.3902 27.0977 51.8432 26.7508 51.016 26.7508C50.2688 26.7508 49.5884 27.2045 49.2415 27.6848V32.2877H48.0408V25.8436H49.2415V26.7508C49.6685 26.2305 50.5223 25.6835 51.523 25.6835C52.8838 25.6835 53.5909 26.404 53.5909 27.7648V32.2877ZM55.44 33.942L56.0137 33.0615C56.5474 33.6752 57.2011 33.9154 58.0817 33.9154C59.0823 33.9154 60.0829 33.435 60.0829 32.0742V31.2337C59.5893 31.8741 58.8288 32.341 57.9616 32.341C56.2939 32.341 55.0931 31.1136 55.0931 29.0056C55.0931 26.9376 56.2939 25.6835 57.9616 25.6835C58.8021 25.6835 59.5626 26.0838 60.0829 26.7775V25.8436H61.2837V32.0342C61.2837 34.2489 59.6694 34.9026 58.0817 34.9026C57.001 34.9026 56.2138 34.6758 55.44 33.942ZM60.0829 30.3131V27.6981C59.7494 27.1778 59.0156 26.7508 58.2952 26.7508C57.0944 26.7508 56.3473 27.6848 56.3473 29.0056C56.3473 30.3398 57.0944 31.2737 58.2952 31.2737C59.0156 31.2737 59.7494 30.8334 60.0829 30.3131ZM63.7806 24.7629C63.367 24.7629 63.0068 24.4294 63.0068 24.0024C63.0068 23.5755 63.367 23.2286 63.7806 23.2286C64.2075 23.2286 64.5544 23.5755 64.5544 24.0024C64.5544 24.4294 64.2075 24.7629 63.7806 24.7629ZM64.3943 32.2877H63.1935V25.8436H64.3943V32.2877ZM71.8577 32.2877H70.6569V28.1651C70.6569 27.0977 70.1099 26.7508 69.2827 26.7508C68.5356 26.7508 67.8551 27.2045 67.5082 27.6848V32.2877H66.3075V25.8436H67.5082V26.7508C67.9352 26.2305 68.7891 25.6835 69.7897 25.6835C71.1505 25.6835 71.8577 26.404 71.8577 27.7648V32.2877ZM73.3598 29.059C73.3598 27.1911 74.7074 25.6835 76.5885 25.6835C78.5231 25.6835 79.7239 27.1911 79.7239 29.1657V29.4592H74.6273C74.7207 30.5532 75.5212 31.4605 76.8154 31.4605C77.4958 31.4605 78.2429 31.1936 78.7232 30.7L79.2836 31.4872C78.6432 32.1142 77.7359 32.4478 76.6953 32.4478C74.7741 32.4478 73.3598 31.0869 73.3598 29.059ZM76.5885 26.6708C75.2944 26.6708 74.6807 27.7114 74.614 28.592H78.5498C78.5231 27.7381 77.9494 26.6708 76.5885 26.6708Z" fill="#42DCD6"/>
<defs>
<linearGradient id="paint0_linear_1836_1878" x1="6.00074" y1="9.18387" x2="17.6257" y2="23.0717" gradientUnits="userSpaceOnUse">
<stop stop-color="#0091B5"/>
<stop offset="0.5" stop-color="#044E60"/>
<stop offset="1" stop-color="#42DCD6"/>
</linearGradient>
</defs>
</svg>
