<svg width="120" height="37" viewBox="0 0 120 37" fill="none" xmlns="http://www.w3.org/2000/svg">
<g clip-path="url(#clip0_1836_1894)">
<path d="M15.4768 33.2439C11.1405 33.2439 7.10241 31.2982 4.39484 27.908C3.59096 26.9014 3.7564 25.4357 4.76067 24.6342C5.76494 23.8303 7.2329 23.9957 8.03445 25C9.85425 27.2788 12.5642 28.5837 15.4744 28.5837C20.7218 28.5837 24.9905 24.315 24.9905 19.0676C24.9905 13.8202 20.7218 9.55148 15.4744 9.55148C11.6228 9.55148 8.17426 11.8489 6.68999 15.4047C6.19368 16.593 4.83057 17.1522 3.64222 16.6559C2.45387 16.1596 1.89465 14.7965 2.39096 13.6082C4.60222 8.3142 9.74008 4.89362 15.4768 4.89362C23.2942 4.89362 29.6531 11.2524 29.6531 19.0699C29.6531 26.8874 23.2942 33.2462 15.4768 33.2462V33.2439Z" fill="url(#paint0_linear_1836_1894)"/>
<path d="M15.1287 22.1277C16.827 22.1277 18.2038 20.7509 18.2038 19.0526C18.2038 17.3543 16.827 15.9776 15.1287 15.9776C13.4304 15.9776 12.0537 17.3543 12.0537 19.0526C12.0537 20.7509 13.4304 22.1277 15.1287 22.1277Z" fill="url(#paint1_linear_1836_1894)"/>
</g>
<path d="M46.6258 17.2238C42.9911 17.2238 40.102 14.6143 40.102 10.7932C40.102 6.97206 42.9911 4.36253 46.6258 4.36253C49.459 4.36253 51.0434 5.85369 51.9195 7.40077L49.6454 8.51914C49.1235 7.51261 48.0052 6.7111 46.6258 6.7111C44.4637 6.7111 42.8234 8.44458 42.8234 10.7932C42.8234 13.1417 44.4637 14.8752 46.6258 14.8752C48.0052 14.8752 49.1235 14.0924 49.6454 13.0672L51.9195 14.1669C51.0248 15.714 49.459 17.2238 46.6258 17.2238ZM57.6143 17.2238C54.6506 17.2238 52.8612 15.0616 52.8612 12.4894C52.8612 9.93574 54.6506 7.77356 57.6143 7.77356C60.5966 7.77356 62.386 9.93574 62.386 12.4894C62.386 15.0616 60.5966 17.2238 57.6143 17.2238ZM57.6143 15.1175C59.0868 15.1175 59.9256 13.906 59.9256 12.4894C59.9256 11.0914 59.0868 9.87982 57.6143 9.87982C56.1418 9.87982 55.3216 11.0914 55.3216 12.4894C55.3216 13.906 56.1418 15.1175 57.6143 15.1175ZM66.5094 17.0001H64.1422V4.56756H66.5094V17.0001ZM80.1895 17.0001H77.0208L73.908 12.4521L70.7765 17.0001H67.6265L72.1372 10.6254L67.9061 4.56756H71.0561L73.908 8.81737L76.7226 4.56756H79.9099L75.6787 10.6068L80.1895 17.0001ZM80.5058 15.248L81.9597 13.2349C82.8357 14.1483 84.1964 14.9125 85.9113 14.9125C87.3651 14.9125 88.0734 14.2228 88.0734 13.5145C88.0734 12.5826 86.9923 12.2657 85.5571 11.9302C83.5254 11.4642 80.9159 10.905 80.9159 8.12771C80.9159 6.05872 82.7053 4.38116 85.6317 4.38116C87.6074 4.38116 89.2477 4.97763 90.4779 6.11464L89.0054 8.05315C87.9989 7.12117 86.6568 6.69247 85.4453 6.69247C84.2523 6.69247 83.6186 7.21437 83.6186 7.95995C83.6186 8.79873 84.6624 9.05968 86.0976 9.3952C88.148 9.86118 90.7575 10.4763 90.7575 13.2349C90.7575 15.509 89.1359 17.2238 85.7808 17.2238C83.3949 17.2238 81.6801 16.4223 80.5058 15.248ZM92.0394 20.523L92.3936 18.3981C92.5986 18.4913 92.9155 18.5472 93.1392 18.5472C93.7543 18.5472 94.1643 18.3794 94.388 17.8948L94.7235 17.1306L91.0702 7.99723H93.6052L95.9537 14.2601L98.3023 7.99723H100.856L96.6248 18.4726C95.9537 20.1688 94.7608 20.6162 93.2137 20.6535C92.9341 20.6535 92.3377 20.5975 92.0394 20.523ZM101.13 15.8258L102.155 14.1669C102.807 14.782 104.149 15.3971 105.268 15.3971C106.293 15.3971 106.778 15.043 106.778 14.4838C106.778 13.85 105.995 13.6264 104.97 13.4213C103.423 13.1231 101.428 12.7503 101.428 10.6068C101.428 9.09696 102.751 7.77356 105.119 7.77356C106.647 7.77356 107.859 8.29546 108.735 9.00377L107.803 10.6254C107.262 10.0476 106.237 9.58159 105.137 9.58159C104.28 9.58159 103.721 9.89846 103.721 10.4204C103.721 10.9796 104.429 11.1846 105.436 11.3896C106.983 11.6879 109.052 12.0979 109.052 14.3347C109.052 15.9936 107.654 17.2238 105.156 17.2238C103.59 17.2238 102.08 16.7019 101.13 15.8258Z" fill="white"/>
<path d="M40.0875 27.7806C40.0875 25.1151 41.9318 23.1362 44.6107 23.1362C47.2896 23.1362 49.1339 25.1151 49.1339 27.7806C49.1339 30.446 47.2896 32.4249 44.6107 32.4249C41.9318 32.4249 40.0875 30.446 40.0875 27.7806ZM47.7473 27.7806C47.7473 25.8017 46.5088 24.3343 44.6107 24.3343C42.6857 24.3343 41.4741 25.8017 41.4741 27.7806C41.4741 29.746 42.6857 31.2268 44.6107 31.2268C46.5088 31.2268 47.7473 29.746 47.7473 27.7806ZM56.3313 32.2634H55.1197V28.1036C55.1197 27.0267 54.5678 26.6767 53.7331 26.6767C52.9793 26.6767 52.2927 27.1344 51.9427 27.619V32.2634H50.7311V25.7613H51.9427V26.6767C52.3735 26.1517 53.235 25.5997 54.2447 25.5997C55.6178 25.5997 56.3313 26.3267 56.3313 27.6998V32.2634ZM57.847 29.0056C57.847 27.1209 59.2066 25.5997 61.1048 25.5997C63.0567 25.5997 64.2683 27.1209 64.2683 29.1133V29.4094H59.1259C59.2201 30.5133 60.0278 31.4287 61.3336 31.4287C62.0202 31.4287 62.774 31.1595 63.2587 30.6614L63.8241 31.4557C63.1779 32.0884 62.2625 32.4249 61.2125 32.4249C59.2739 32.4249 57.847 31.0518 57.847 29.0056ZM61.1048 26.5959C59.799 26.5959 59.1797 27.6459 59.1124 28.5344H63.0837C63.0567 27.6729 62.4779 26.5959 61.1048 26.5959Z" fill="#3BD3D2"/>
<defs>
<linearGradient id="paint0_linear_1836_1894" x1="7.91293" y1="10.4397" x2="19.1353" y2="23.6684" gradientUnits="userSpaceOnUse">
<stop stop-color="#0091B5"/>
<stop offset="0.5" stop-color="#044E60"/>
<stop offset="1" stop-color="#42DCD6"/>
</linearGradient>
<linearGradient id="paint1_linear_1836_1894" x1="15.1239" y1="17.6711" x2="15.8022" y2="21.1161" gradientUnits="userSpaceOnUse">
<stop stop-color="#0091B5"/>
<stop offset="1" stop-color="#42DCD6"/>
</linearGradient>
<clipPath id="clip0_1836_1894">
<rect width="29.8525" height="30.5467" fill="white" transform="translate(0 2.85828)"/>
</clipPath>
</defs>
</svg>
