<svg width="60" height="60" viewBox="0 0 60 60" fill="none" xmlns="http://www.w3.org/2000/svg">
<rect x="0.5" y="0.5" width="59" height="59" rx="29.5" fill="#202531"/>
<rect x="0.5" y="0.5" width="59" height="59" rx="29.5" stroke="white"/>
<g clip-path="url(#clip0_1827_1739)">
<path d="M30.5505 45.1122C26.2142 45.1122 22.1761 43.1666 19.4686 39.7763C18.6647 38.7697 18.8301 37.3041 19.8344 36.5025C20.8387 35.6986 22.3066 35.8641 23.1082 36.8684C24.928 39.1472 27.6379 40.452 30.5482 40.452C35.7955 40.452 40.0643 36.1833 40.0643 30.9359C40.0643 25.6886 35.7955 21.4198 30.5482 21.4198C26.6965 21.4198 23.248 23.7173 21.7637 27.273C21.2674 28.4614 19.9043 29.0206 18.716 28.5243C17.5276 28.028 16.9684 26.6649 17.4647 25.4765C19.676 20.1825 24.8138 16.762 30.5505 16.762C38.368 16.762 44.7268 23.1208 44.7268 30.9383C44.7268 38.7557 38.368 45.1146 30.5505 45.1146V45.1122Z" fill="url(#paint0_linear_1827_1739)"/>
<path d="M30.2025 33.9961C31.9008 33.9961 33.2775 32.6194 33.2775 30.9211C33.2775 29.2228 31.9008 27.8461 30.2025 27.8461C28.5042 27.8461 27.1274 29.2228 27.1274 30.9211C27.1274 32.6194 28.5042 33.9961 30.2025 33.9961Z" fill="url(#paint1_linear_1827_1739)"/>
</g>
<defs>
<linearGradient id="paint0_linear_1827_1739" x1="22.9867" y1="22.3081" x2="34.209" y2="35.5368" gradientUnits="userSpaceOnUse">
<stop stop-color="#0091B5"/>
<stop offset="0.5" stop-color="#044E60"/>
<stop offset="1" stop-color="#42DCD6"/>
</linearGradient>
<linearGradient id="paint1_linear_1827_1739" x1="30.1976" y1="29.5396" x2="30.8759" y2="32.9846" gradientUnits="userSpaceOnUse">
<stop stop-color="#0091B5"/>
<stop offset="1" stop-color="#42DCD6"/>
</linearGradient>
<clipPath id="clip0_1827_1739">
<rect width="29.8525" height="30.5467" fill="white" transform="translate(15.0737 14.7267)"/>
</clipPath>
</defs>
</svg>
