<svg width="60" height="60" viewBox="0 0 60 60" fill="none" xmlns="http://www.w3.org/2000/svg">
<rect x="0.5" y="0.5" width="59" height="59" rx="29.5" fill="#202531"/>
<rect x="0.5" y="0.5" width="59" height="59" rx="29.5" stroke="white"/>
<path d="M42.5814 24.5453L33.0659 16.7192C31.277 15.2583 28.7234 15.2583 26.964 16.7192L17.4518 24.5453C16.687 25.1756 16.2242 26.1375 16.2242 27.1321L16.1914 39.5673C16.1914 42.2198 18.3479 44.3766 20.9967 44.3766H39.0003C41.6525 44.3766 43.809 42.2198 43.809 39.5673L43.7761 27.1321C43.8122 26.1046 43.379 25.1756 42.5846 24.5453H42.5814ZM20.767 26.7349L28.6577 20.235C29.4553 19.5719 30.5812 19.5719 31.3755 20.235L39.2662 26.7349C39.7651 27.1321 40.0277 27.7296 40.0277 28.3599V38.6054C40.0277 39.7676 39.066 40.7261 37.9073 40.7261H22.1259C20.9639 40.7261 20.0055 39.7643 20.0055 38.6054V28.3566C20.0055 27.7263 20.3042 27.1321 20.767 26.7316V26.7349Z" fill="url(#paint0_linear_1827_1705)"/>
<defs>
<linearGradient id="paint0_linear_1827_1705" x1="21.9306" y1="21.248" x2="33.3254" y2="34.5771" gradientUnits="userSpaceOnUse">
<stop stop-color="#0091B5"/>
<stop offset="0.5" stop-color="#044E60"/>
<stop offset="1" stop-color="#42DCD6"/>
</linearGradient>
</defs>
</svg>
