<svg width="109" height="36" viewBox="0 0 109 36" fill="none" xmlns="http://www.w3.org/2000/svg">
<g clip-path="url(#clip0_1836_1862)">
<path d="M26.39 12.878L16.8745 5.05187C15.0856 3.59103 12.5319 3.59103 10.7726 5.05187L1.26042 12.878C0.495632 13.5083 0.0328233 14.4702 0.0328233 15.4648L0 27.9C0 30.5525 2.15649 32.7093 4.80534 32.7093H22.8089C25.4611 32.7093 27.6175 30.5525 27.6175 27.9L27.5847 15.4648C27.6208 14.4373 27.1876 13.5083 26.3932 12.878H26.39ZM4.57557 15.0676L12.4663 8.56772C13.2639 7.9046 14.3897 7.9046 15.1841 8.56772L23.0748 15.0676C23.5737 15.4648 23.8363 16.0623 23.8363 16.6926V26.9381C23.8363 28.1003 22.8746 29.0588 21.7159 29.0588H5.93446C4.77251 29.0588 3.81407 28.097 3.81407 26.9381V16.6893C3.81407 16.059 4.11276 15.4648 4.57557 15.0643V15.0676Z" fill="url(#paint0_linear_1836_1862)"/>
</g>
<path d="M48.6499 17.214C45.1701 17.214 42.4041 14.7156 42.4041 11.0574C42.4041 7.39911 45.1701 4.90078 48.6499 4.90078C51.3624 4.90078 52.8792 6.3284 53.7179 7.80955L51.5408 8.88026C51.0412 7.91662 49.9705 7.14928 48.6499 7.14928C46.5799 7.14928 45.0095 8.80888 45.0095 11.0574C45.0095 13.3059 46.5799 14.9655 48.6499 14.9655C49.9705 14.9655 51.0412 14.216 51.5408 13.2345L53.7179 14.2873C52.8614 15.7685 51.3624 17.214 48.6499 17.214ZM59.1701 17.214C56.3327 17.214 54.6195 15.1439 54.6195 12.6813C54.6195 10.2365 56.3327 8.16645 59.1701 8.16645C62.0253 8.16645 63.7384 10.2365 63.7384 12.6813C63.7384 15.1439 62.0253 17.214 59.1701 17.214ZM59.1701 15.1975C60.5798 15.1975 61.3829 14.0375 61.3829 12.6813C61.3829 11.3429 60.5798 10.183 59.1701 10.183C57.7603 10.183 56.9751 11.3429 56.9751 12.6813C56.9751 14.0375 57.7603 15.1975 59.1701 15.1975ZM67.6861 16.9998H65.4198V5.09708H67.6861V16.9998ZM80.7832 16.9998H77.7495L74.7694 12.6456L71.7714 16.9998H68.7556L73.0741 10.8968L69.0233 5.09708H72.0391L74.7694 9.16578L77.464 5.09708H80.5156L76.4647 10.8789L80.7832 16.9998ZM81.086 15.3224L82.478 13.3951C83.3167 14.2695 84.6194 15.0012 86.2611 15.0012C87.6531 15.0012 88.3312 14.3409 88.3312 13.6628C88.3312 12.7705 87.2962 12.4671 85.9221 12.1459C83.977 11.6998 81.4786 11.1644 81.4786 8.50551C81.4786 6.52469 83.1918 4.91863 85.9935 4.91863C87.8851 4.91863 89.4554 5.48967 90.6332 6.57823L89.2234 8.43413C88.2598 7.54187 86.975 7.13143 85.815 7.13143C84.6729 7.13143 84.0662 7.6311 84.0662 8.3449C84.0662 9.14794 85.0655 9.39777 86.4396 9.71898C88.4026 10.1651 90.9009 10.754 90.9009 13.3951C90.9009 15.5722 89.3484 17.214 86.1362 17.214C83.852 17.214 82.2103 16.4466 81.086 15.3224ZM92.1282 20.3726L92.4672 18.3382C92.6635 18.4274 92.9669 18.481 93.181 18.481C93.7699 18.481 94.1625 18.3204 94.3767 17.8564L94.6979 17.1247L91.2002 8.38059H93.6272L95.8757 14.3766L98.1241 8.38059H100.569L96.5181 18.4096C95.8757 20.0335 94.7336 20.4618 93.2524 20.4975C92.9847 20.4975 92.4137 20.4439 92.1282 20.3726ZM100.831 15.8756L101.813 14.2873C102.437 14.8762 103.722 15.4651 104.793 15.4651C105.774 15.4651 106.238 15.1261 106.238 14.5907C106.238 13.984 105.489 13.7698 104.507 13.5735C103.026 13.288 101.117 12.9311 101.117 10.8789C101.117 9.43346 102.384 8.16645 104.65 8.16645C106.113 8.16645 107.273 8.66612 108.112 9.34423L107.22 10.8968C106.702 10.3436 105.721 9.89743 104.668 9.89743C103.847 9.89743 103.312 10.2008 103.312 10.7005C103.312 11.2358 103.99 11.4321 104.953 11.6284C106.435 11.9139 108.415 12.3065 108.415 14.448C108.415 16.0362 107.077 17.214 104.686 17.214C103.187 17.214 101.741 16.7143 100.831 15.8756Z" fill="white"/>
<path d="M46.8882 31.3797H45.2772L41.8618 22.7833H43.3311L46.0762 29.9749L48.8343 22.7833H50.3036L46.8882 31.3797ZM51.8761 24.1108C51.4766 24.1108 51.1286 23.7886 51.1286 23.3761C51.1286 22.9637 51.4766 22.6286 51.8761 22.6286C52.2885 22.6286 52.6236 22.9637 52.6236 23.3761C52.6236 23.7886 52.2885 24.1108 51.8761 24.1108ZM52.469 31.3797H51.309V25.1547H52.469V31.3797ZM53.7758 30.5677L54.33 29.7171C54.7553 30.1811 55.5802 30.6064 56.4179 30.6064C57.2943 30.6064 57.7583 30.2455 57.7583 29.7171C57.7583 29.0985 57.0494 28.8923 56.2504 28.7118C55.1935 28.467 53.9563 28.1834 53.9563 26.8431C53.9563 25.8507 54.8069 25 56.3277 25C57.3974 25 58.1707 25.3867 58.6991 25.8893L58.1836 26.7013C57.8227 26.2631 57.1268 25.9409 56.3406 25.9409C55.5544 25.9409 55.0646 26.2502 55.0646 26.7528C55.0646 27.2941 55.7348 27.4746 56.5081 27.655C57.5907 27.8999 58.8795 28.1963 58.8795 29.6269C58.8795 30.6966 58.0032 31.5344 56.3664 31.5344C55.3224 31.5344 54.4073 31.2122 53.7758 30.5677ZM60.913 24.1108C60.5134 24.1108 60.1654 23.7886 60.1654 23.3761C60.1654 22.9637 60.5134 22.6286 60.913 22.6286C61.3254 22.6286 61.6605 22.9637 61.6605 23.3761C61.6605 23.7886 61.3254 24.1108 60.913 24.1108ZM61.5058 31.3797H60.3459V25.1547H61.5058V31.3797ZM65.0681 31.5344C64.0886 31.5344 63.586 30.9802 63.586 30.0007V26.1729H62.5549V25.1547H63.586V23.4535H64.7459V25.1547H66.0089V26.1729H64.7459V29.7429C64.7459 30.1811 64.9521 30.5033 65.3516 30.5033C65.6223 30.5033 65.8672 30.3873 65.9832 30.2584L66.2796 31.1348C66.0347 31.3668 65.6738 31.5344 65.0681 31.5344Z" fill="#42DCD6"/>
<defs>
<linearGradient id="paint0_linear_1836_1862" x1="5.73922" y1="9.58068" x2="17.134" y2="22.9098" gradientUnits="userSpaceOnUse">
<stop stop-color="#0091B5"/>
<stop offset="0.5" stop-color="#044E60"/>
<stop offset="1" stop-color="#42DCD6"/>
</linearGradient>
<clipPath id="clip0_1836_1862">
<rect width="27.6175" height="28.7506" fill="white" transform="translate(0 3.31464)"/>
</clipPath>
</defs>
</svg>
