<svg width="109" height="36" viewBox="0 0 109 36" fill="none" xmlns="http://www.w3.org/2000/svg">
<g clip-path="url(#clip0_1727_1821)">
<path d="M26.39 12.8781L16.8745 5.05193C15.0856 3.59109 12.5319 3.59109 10.7726 5.05193L1.26042 12.8781C0.495632 13.5084 0.0328233 14.4702 0.0328233 15.4649L0 27.9001C0 30.5526 2.15649 32.7093 4.80534 32.7093H22.8089C25.4611 32.7093 27.6175 30.5526 27.6175 27.9001L27.5847 15.4649C27.6208 14.4374 27.1876 13.5084 26.3932 12.8781H26.39ZM4.57557 15.0677L12.4663 8.56778C13.2639 7.90466 14.3897 7.90466 15.1841 8.56778L23.0748 15.0677C23.5737 15.4649 23.8363 16.0624 23.8363 16.6927V26.9382C23.8363 28.1003 22.8746 29.0589 21.7159 29.0589H5.93446C4.77251 29.0589 3.81407 28.097 3.81407 26.9382V16.6894C3.81407 16.0591 4.11276 15.4649 4.57557 15.0644V15.0677Z" fill="url(#paint0_linear_1727_1821)"/>
</g>
<path d="M48.6499 17.2139C45.1701 17.2139 42.4041 14.7156 42.4041 11.0573C42.4041 7.39905 45.1701 4.90072 48.6499 4.90072C51.3624 4.90072 52.8792 6.32834 53.7179 7.80949L51.5408 8.8802C51.0412 7.91656 49.9705 7.14921 48.6499 7.14921C46.5799 7.14921 45.0095 8.80882 45.0095 11.0573C45.0095 13.3058 46.5799 14.9654 48.6499 14.9654C49.9705 14.9654 51.0412 14.2159 51.5408 13.2344L53.7179 14.2873C52.8614 15.7684 51.3624 17.2139 48.6499 17.2139ZM59.1701 17.2139C56.3327 17.2139 54.6195 15.1439 54.6195 12.6812C54.6195 10.2364 56.3327 8.16639 59.1701 8.16639C62.0253 8.16639 63.7384 10.2364 63.7384 12.6812C63.7384 15.1439 62.0253 17.2139 59.1701 17.2139ZM59.1701 15.1974C60.5798 15.1974 61.3829 14.0375 61.3829 12.6812C61.3829 11.3428 60.5798 10.1829 59.1701 10.1829C57.7603 10.1829 56.9751 11.3428 56.9751 12.6812C56.9751 14.0375 57.7603 15.1974 59.1701 15.1974ZM67.6861 16.9998H65.4198V5.09702H67.6861V16.9998ZM80.7832 16.9998H77.7495L74.7694 12.6455L71.7714 16.9998H68.7556L73.0741 10.8967L69.0233 5.09702H72.0391L74.7694 9.16572L77.464 5.09702H80.5156L76.4647 10.8789L80.7832 16.9998ZM81.086 15.3223L82.478 13.395C83.3167 14.2694 84.6194 15.0011 86.2611 15.0011C87.6531 15.0011 88.3312 14.3408 88.3312 13.6627C88.3312 12.7704 87.2962 12.4671 85.9221 12.1459C83.977 11.6997 81.4786 11.1644 81.4786 8.50545C81.4786 6.52463 83.1918 4.91857 85.9935 4.91857C87.8851 4.91857 89.4554 5.48961 90.6332 6.57817L89.2234 8.43407C88.2598 7.54181 86.975 7.13137 85.815 7.13137C84.6729 7.13137 84.0662 7.63103 84.0662 8.34484C84.0662 9.14788 85.0655 9.39771 86.4396 9.71892C88.4026 10.1651 90.9009 10.7539 90.9009 13.395C90.9009 15.5721 89.3484 17.2139 86.1362 17.2139C83.852 17.2139 82.2103 16.4466 81.086 15.3223ZM92.1282 20.3725L92.4672 18.3381C92.6635 18.4274 92.9669 18.4809 93.181 18.4809C93.7699 18.4809 94.1625 18.3203 94.3767 17.8563L94.6979 17.1247L91.2002 8.38053H93.6272L95.8757 14.3765L98.1241 8.38053H100.569L96.5181 18.4095C95.8757 20.0334 94.7336 20.4617 93.2524 20.4974C92.9847 20.4974 92.4137 20.4439 92.1282 20.3725ZM100.831 15.8755L101.813 14.2873C102.437 14.8762 103.722 15.4651 104.793 15.4651C105.774 15.4651 106.238 15.126 106.238 14.5907C106.238 13.9839 105.489 13.7698 104.507 13.5735C103.026 13.288 101.117 12.9311 101.117 10.8789C101.117 9.4334 102.384 8.16639 104.65 8.16639C106.113 8.16639 107.273 8.66606 108.112 9.34417L107.22 10.8967C106.702 10.3435 105.721 9.89737 104.668 9.89737C103.847 9.89737 103.312 10.2007 103.312 10.7004C103.312 11.2358 103.99 11.4321 104.953 11.6284C106.435 11.9139 108.415 12.3065 108.415 14.4479C108.415 16.0361 107.077 17.2139 104.686 17.2139C103.187 17.2139 101.741 16.7142 100.831 15.8755Z" fill="white"/>
<path d="M46.8882 31.3796H45.2772L41.8618 22.7832H43.3311L46.0762 29.9748L48.8343 22.7832H50.3036L46.8882 31.3796ZM51.8761 24.1107C51.4766 24.1107 51.1286 23.7885 51.1286 23.3761C51.1286 22.9637 51.4766 22.6286 51.8761 22.6286C52.2885 22.6286 52.6236 22.9637 52.6236 23.3761C52.6236 23.7885 52.2885 24.1107 51.8761 24.1107ZM52.469 31.3796H51.309V25.1546H52.469V31.3796ZM53.7758 30.5677L54.33 29.7171C54.7553 30.181 55.5802 30.6063 56.4179 30.6063C57.2943 30.6063 57.7583 30.2455 57.7583 29.7171C57.7583 29.0984 57.0494 28.8922 56.2504 28.7118C55.1935 28.4669 53.9563 28.1834 53.9563 26.843C53.9563 25.8506 54.8069 25 56.3277 25C57.3974 25 58.1707 25.3866 58.6991 25.8893L58.1836 26.7012C57.8227 26.263 57.1268 25.9408 56.3406 25.9408C55.5544 25.9408 55.0646 26.2501 55.0646 26.7528C55.0646 27.2941 55.7348 27.4745 56.5081 27.655C57.5907 27.8998 58.8795 28.1963 58.8795 29.6268C58.8795 30.6966 58.0032 31.5343 56.3664 31.5343C55.3224 31.5343 54.4073 31.2121 53.7758 30.5677ZM60.913 24.1107C60.5134 24.1107 60.1654 23.7885 60.1654 23.3761C60.1654 22.9637 60.5134 22.6286 60.913 22.6286C61.3254 22.6286 61.6605 22.9637 61.6605 23.3761C61.6605 23.7885 61.3254 24.1107 60.913 24.1107ZM61.5058 31.3796H60.3459V25.1546H61.5058V31.3796ZM65.0681 31.5343C64.0886 31.5343 63.586 30.9801 63.586 30.0006V26.1728H62.5549V25.1546H63.586V23.4534H64.7459V25.1546H66.0089V26.1728H64.7459V29.7428C64.7459 30.181 64.9521 30.5032 65.3516 30.5032C65.6223 30.5032 65.8672 30.3872 65.9832 30.2584L66.2796 31.1348C66.0347 31.3668 65.6738 31.5343 65.0681 31.5343Z" fill="#42DCD6"/>
<defs>
<linearGradient id="paint0_linear_1727_1821" x1="5.73922" y1="9.58075" x2="17.134" y2="22.9098" gradientUnits="userSpaceOnUse">
<stop stop-color="#0091B5"/>
<stop offset="0.5" stop-color="#044E60"/>
<stop offset="1" stop-color="#42DCD6"/>
</linearGradient>
<clipPath id="clip0_1727_1821">
<rect width="27.6175" height="28.7506" fill="white" transform="translate(0 3.3147)"/>
</clipPath>
</defs>
</svg>
