<svg width="109" height="32" viewBox="0 0 109 32" fill="none" xmlns="http://www.w3.org/2000/svg">
<g clip-path="url(#clip0_1727_1811)">
<path d="M28.8048 25.0001C28.357 25.0001 27.9823 24.8949 27.667 24.7167C27.4706 24.7441 27.2741 24.767 27.0685 24.767H13.3058C8.48974 24.767 4.56929 20.8451 4.56929 16.0274C4.56929 11.2096 8.48974 7.27867 13.3058 7.27867C16.2164 7.27867 18.8026 8.69565 20.3927 10.8988C21.3751 9.69211 22.3987 8.51281 23.3765 7.30152C20.9319 4.4767 17.3222 2.70776 13.3058 2.70776C5.96749 2.70776 0 8.68194 0 16.0228C0 23.3637 5.96749 29.3333 13.3058 29.3333H27.0685C30.2715 29.3333 33.068 27.5872 34.5712 25.0001H28.8048Z" fill="#0091B5"/>
<path d="M27.0602 11.9084C26.7071 11.9084 26.354 11.9314 26.01 11.9726L22.3661 18.3556L25.2858 16.9158C25.8516 16.6361 26.4491 16.4939 27.0647 16.4939C29.31 16.4939 31.1387 18.3464 31.1387 20.6208C31.1387 22.8952 29.31 24.7478 27.0647 24.7478H13.4304C13.4078 24.7478 12.3998 24.7478 12.3772 24.7478L12.3772 29.3332C11.3918 29.3332 13.4304 29.3332 13.4304 29.3332H27.0647C31.8087 29.3332 35.6654 25.4264 35.6654 20.6208C35.6654 15.8153 31.8087 11.9084 27.0647 11.9084H27.0602Z" fill="#44DFD7"/>
<path d="M27.126 16.5053C28.3689 16.5053 29.4427 17.056 30.1857 17.9494C31.2754 16.9109 32.3795 15.85 33.4782 14.8206C31.9112 13.0475 29.6567 11.9084 27.1215 11.9084C26.7703 11.9084 26.3168 11.9421 25.9746 11.9829L22.3508 18.3826L25.379 16.8904C25.9419 16.6138 26.5136 16.5053 27.126 16.5053Z" fill="url(#paint0_linear_1727_1811)"/>
<path d="M12.3919 24.7487C8.1836 24.3144 4.86172 20.8817 4.583 16.6307H0C0.287865 23.4048 5.66135 28.8808 12.3919 29.3333V24.7487Z" fill="url(#paint1_linear_1727_1811)"/>
<path d="M26.004 12.0516C24.3484 6.71381 19.4638 2.92262 13.699 2.76294C13.699 4.28672 13.7218 5.81049 13.7993 7.33427C18.0819 7.56238 21.5709 10.838 22.0087 15.1493L22.3371 18.4067" fill="url(#paint2_linear_1727_1811)"/>
</g>
<path d="M50.0918 16.2082C46.7081 16.2082 44.0185 13.7789 44.0185 10.2216C44.0185 6.66436 46.7081 4.23502 50.0918 4.23502C52.7294 4.23502 54.2044 5.62321 55.0199 7.06347L52.9029 8.10462C52.4171 7.16759 51.3759 6.42143 50.0918 6.42143C48.0789 6.42143 46.5519 8.03521 46.5519 10.2216C46.5519 12.408 48.0789 14.0218 50.0918 14.0218C51.3759 14.0218 52.4171 13.293 52.9029 12.3386L55.0199 13.3624C54.187 14.8027 52.7294 16.2082 50.0918 16.2082ZM60.3215 16.2082C57.5625 16.2082 55.8966 14.1953 55.8966 11.8007C55.8966 9.42341 57.5625 7.41052 60.3215 7.41052C63.0979 7.41052 64.7638 9.42341 64.7638 11.8007C64.7638 14.1953 63.0979 16.2082 60.3215 16.2082ZM60.3215 14.2474C61.6924 14.2474 62.4732 13.1195 62.4732 11.8007C62.4732 10.4993 61.6924 9.37135 60.3215 9.37135C58.9507 9.37135 58.1872 10.4993 58.1872 11.8007C58.1872 13.1195 58.9507 14.2474 60.3215 14.2474ZM68.6024 16H66.3987V4.42589H68.6024V16ZM81.3379 16H78.388L75.4902 11.766L72.5749 16H69.6424L73.8417 10.0655L69.9027 4.42589H72.8352L75.4902 8.38226L78.1104 4.42589H81.0777L77.1386 10.0481L81.3379 16ZM81.6324 14.3689L82.9859 12.4948C83.8015 13.3451 85.0682 14.0565 86.6646 14.0565C88.0181 14.0565 88.6775 13.4145 88.6775 12.7551C88.6775 11.8875 87.6711 11.5925 86.3349 11.2801C84.4435 10.8463 82.0142 10.3257 82.0142 7.74022C82.0142 5.81409 83.68 4.25237 86.4043 4.25237C88.2437 4.25237 89.7707 4.80765 90.916 5.86615L89.5451 7.67081C88.6081 6.80318 87.3587 6.40408 86.2308 6.40408C85.1202 6.40408 84.5303 6.88995 84.5303 7.58405C84.5303 8.36491 85.502 8.60784 86.8381 8.92019C88.7469 9.354 91.1763 9.92663 91.1763 12.4948C91.1763 14.6118 89.6666 16.2082 86.5431 16.2082C84.322 16.2082 82.7256 15.4621 81.6324 14.3689ZM92.3697 19.2796L92.6993 17.3014C92.8902 17.3882 93.1852 17.4403 93.3934 17.4403C93.9661 17.4403 94.3478 17.2841 94.5561 16.8329L94.8684 16.1215L91.4673 7.61875H93.8273L96.0137 13.4492L98.2001 7.61875H100.577L96.6384 17.3708C96.0137 18.9499 94.9031 19.3664 93.4629 19.4011C93.2026 19.4011 92.6473 19.349 92.3697 19.2796ZM100.832 14.9068L101.787 13.3624C102.394 13.9351 103.643 14.5077 104.685 14.5077C105.639 14.5077 106.09 14.178 106.09 13.6574C106.09 13.0674 105.361 12.8592 104.407 12.6683C102.967 12.3907 101.11 12.0436 101.11 10.0481C101.11 8.64255 102.342 7.41052 104.546 7.41052C105.969 7.41052 107.097 7.89639 107.912 8.55578L107.045 10.0655C106.541 9.52752 105.587 9.09371 104.563 9.09371C103.765 9.09371 103.244 9.3887 103.244 9.87457C103.244 10.3951 103.904 10.586 104.841 10.7769C106.281 11.0545 108.207 11.4363 108.207 13.5186C108.207 15.063 106.906 16.2082 104.581 16.2082C103.123 16.2082 101.717 15.7224 100.832 14.9068Z" fill="white"/>
<path d="M48.291 30.1504C45.9099 30.1504 44.005 28.3959 44.005 25.8267C44.005 23.2576 45.9099 21.5031 48.291 21.5031C49.9328 21.5031 50.9604 22.2926 51.6121 23.2701L50.5468 23.8341C50.1082 23.1323 49.2811 22.6184 48.291 22.6184C46.5992 22.6184 45.2958 23.9469 45.2958 25.8267C45.2958 27.694 46.5992 29.035 48.291 29.035C49.2811 29.035 50.1082 28.5212 50.5468 27.8194L51.6121 28.3833C50.9479 29.3609 49.9328 30.1504 48.291 30.1504ZM53.9645 30H52.8366V21.6409H53.9645V30ZM58.4436 30.1504C56.5637 30.1504 55.3857 28.7217 55.3857 26.9672C55.3857 25.2252 56.5637 23.7965 58.4436 23.7965C60.336 23.7965 61.5015 25.2252 61.5015 26.9672C61.5015 28.7217 60.336 30.1504 58.4436 30.1504ZM58.4436 29.1478C59.6592 29.1478 60.3234 28.1201 60.3234 26.9672C60.3234 25.8267 59.6592 24.7991 58.4436 24.7991C57.2405 24.7991 56.5637 25.8267 56.5637 26.9672C56.5637 28.1201 57.2405 29.1478 58.4436 29.1478ZM68.147 30H67.019V29.1729C66.5554 29.6742 65.7909 30.1504 64.8635 30.1504C63.5727 30.1504 62.9335 29.4987 62.9335 28.2204V23.9469H64.0614V27.8444C64.0614 28.847 64.5627 29.1478 65.3397 29.1478C66.0415 29.1478 66.6807 28.7468 67.019 28.2956V23.9469H68.147V30ZM75.373 30H74.2451V29.1353C73.794 29.7368 73.0671 30.1504 72.265 30.1504C70.6859 30.1504 69.558 28.9598 69.558 26.9797C69.558 25.0372 70.6859 23.7965 72.265 23.7965C73.042 23.7965 73.7564 24.1725 74.2451 24.8241V21.6409H75.373V30ZM74.2451 28.2705V25.6889C73.9318 25.2001 73.2551 24.7991 72.5658 24.7991C71.4379 24.7991 70.7361 25.7139 70.7361 26.9797C70.7361 28.2329 71.4379 29.1478 72.5658 29.1478C73.2551 29.1478 73.9318 28.7593 74.2451 28.2705Z" fill="#42DCD6"/>
<defs>
<linearGradient id="paint0_linear_1727_1811" x1="26.1481" y1="14.4115" x2="30.3805" y2="16.6207" gradientUnits="userSpaceOnUse">
<stop stop-color="#034D5F"/>
<stop offset="1" stop-color="#44DFD7"/>
</linearGradient>
<linearGradient id="paint1_linear_1727_1811" x1="3.41272" y1="18.1179" x2="10.8282" y2="27.7828" gradientUnits="userSpaceOnUse">
<stop stop-color="#0091B5"/>
<stop offset="1" stop-color="#44DFD7"/>
</linearGradient>
<linearGradient id="paint2_linear_1727_1811" x1="19.1545" y1="6.8544" x2="23.0561" y2="13.3959" gradientUnits="userSpaceOnUse">
<stop stop-color="#0091B5"/>
<stop offset="1" stop-color="#034C5E"/>
</linearGradient>
<clipPath id="clip0_1727_1811">
<rect width="35.8095" height="26.6667" fill="white" transform="translate(0 2.66663)"/>
</clipPath>
</defs>
</svg>
