<svg width="109" height="36" viewBox="0 0 109 36" fill="none" xmlns="http://www.w3.org/2000/svg">
<g clip-path="url(#clip0_1727_1829)">
<path fill-rule="evenodd" clip-rule="evenodd" d="M32.675 3.23158C32.1644 2.75165 31.3964 2.59988 30.7288 2.8501L1.15663 13.7285C0.445361 13.9869 -0.0128175 14.6351 0.000273313 15.3529C0.0177277 16.0707 0.506451 16.7024 1.22645 16.9322L13.7718 20.9972L18.0961 32.7904C18.3449 33.4672 19.0169 33.9266 19.7761 33.943C20.5354 33.9594 21.2292 33.5246 21.5041 32.856L33.0808 5.06106C33.3426 4.42935 33.1811 3.71151 32.675 3.23158ZM28.1804 7.45661L19.9245 27.2896L16.9223 19.098C16.7391 18.6017 16.3245 18.212 15.7965 18.0397L7.0824 15.2175L28.1804 7.45661Z" fill="url(#paint0_linear_1727_1829)"/>
</g>
<path d="M48.6664 17.2124C45.2148 17.2124 42.4712 14.7343 42.4712 11.1057C42.4712 7.47713 45.2148 4.99906 48.6664 4.99906C51.3569 4.99906 52.8614 6.4151 53.6933 7.88424L51.5339 8.94627C51.0382 7.99045 49.9762 7.22932 48.6664 7.22932C46.6131 7.22932 45.0555 8.87547 45.0555 11.1057C45.0555 13.336 46.6131 14.9821 48.6664 14.9821C49.9762 14.9821 51.0382 14.2387 51.5339 13.2652L53.6933 14.3095C52.8437 15.7787 51.3569 17.2124 48.6664 17.2124ZM59.1012 17.2124C56.2869 17.2124 54.5876 15.1591 54.5876 12.7165C54.5876 10.2915 56.2869 8.23825 59.1012 8.23825C61.9333 8.23825 63.6326 10.2915 63.6326 12.7165C63.6326 15.1591 61.9333 17.2124 59.1012 17.2124ZM59.1012 15.2122C60.4996 15.2122 61.2961 14.0617 61.2961 12.7165C61.2961 11.3889 60.4996 10.2384 59.1012 10.2384C57.7029 10.2384 56.9241 11.3889 56.9241 12.7165C56.9241 14.0617 57.7029 15.2122 59.1012 15.2122ZM67.5482 17H65.3003V5.19377H67.5482V17ZM80.5392 17H77.5301L74.5741 12.6811L71.6004 17H68.609L72.8926 10.9464L68.8745 5.19377H71.8659L74.5741 9.22948L77.2469 5.19377H80.2737L76.2556 10.9287L80.5392 17ZM80.8395 15.3362L82.2202 13.4245C83.0521 14.2918 84.3442 15.0175 85.9727 15.0175C87.3533 15.0175 88.0259 14.3626 88.0259 13.69C88.0259 12.805 86.9993 12.5041 85.6364 12.1855C83.707 11.743 81.2289 11.2119 81.2289 8.57456C81.2289 6.60981 82.9282 5.01676 85.7072 5.01676C87.5834 5.01676 89.1411 5.58318 90.3093 6.66291L88.9109 8.50376C87.9551 7.61874 86.6807 7.21162 85.5302 7.21162C84.3973 7.21162 83.7955 7.70724 83.7955 8.41526C83.7955 9.21178 84.7867 9.45959 86.1497 9.7782C88.0967 10.2207 90.5748 10.8048 90.5748 13.4245C90.5748 15.584 89.0349 17.2124 85.8488 17.2124C83.5831 17.2124 81.9547 16.4513 80.8395 15.3362ZM91.7921 20.3454L92.1284 18.3275C92.3231 18.416 92.624 18.4691 92.8365 18.4691C93.4206 18.4691 93.81 18.3098 94.0224 17.8496L94.341 17.1239L90.8717 8.45066H93.279L95.5092 14.398L97.7395 8.45066H100.164L96.1464 18.3983C95.5092 20.0091 94.3764 20.4339 92.9073 20.4693C92.6417 20.4693 92.0753 20.4162 91.7921 20.3454ZM100.425 15.8849L101.398 14.3095C102.018 14.8936 103.292 15.4778 104.354 15.4778C105.328 15.4778 105.788 15.1414 105.788 14.6104C105.788 14.0086 105.044 13.7962 104.071 13.6015C102.602 13.3183 100.708 12.9643 100.708 10.9287C100.708 9.49499 101.965 8.23825 104.212 8.23825C105.664 8.23825 106.814 8.73387 107.646 9.40649L106.761 10.9464C106.248 10.3977 105.275 9.9552 104.23 9.9552C103.416 9.9552 102.885 10.2561 102.885 10.7517C102.885 11.2827 103.558 11.4774 104.513 11.6721C105.983 11.9554 107.947 12.3448 107.947 14.4688C107.947 16.0442 106.62 17.2124 104.248 17.2124C102.761 17.2124 101.327 16.7168 100.425 15.8849Z" fill="white"/>
<path d="M50.7157 31.4011H49.3478L47.5709 24.8175L45.8068 31.4011H44.4389L41.9972 22.8744H43.429L45.1931 29.7137L47.0596 22.8744H48.095L49.9487 29.7137L51.7128 22.8744H53.1446L50.7157 31.4011ZM53.3049 28.3075C53.3049 26.5178 54.5961 25.0732 56.3986 25.0732C58.2522 25.0732 59.4027 26.5178 59.4027 28.4097V28.691H54.5193C54.6088 29.7392 55.3759 30.6085 56.6159 30.6085C57.2678 30.6085 57.9837 30.3529 58.4439 29.8799L58.9809 30.6341C58.3672 31.2349 57.498 31.5545 56.5008 31.5545C54.66 31.5545 53.3049 30.2506 53.3049 28.3075ZM56.3986 26.0192C55.1585 26.0192 54.5705 27.0163 54.5066 27.86H58.2778C58.2522 27.0419 57.7025 26.0192 56.3986 26.0192ZM61.9923 31.4011H60.8418V22.8744H61.9923V26.1215C62.4781 25.4567 63.2068 25.0732 64.0121 25.0732C65.6229 25.0732 66.7606 26.3388 66.7606 28.3203C66.7606 30.3401 65.6101 31.5545 64.0121 31.5545C63.1812 31.5545 62.4525 31.1327 61.9923 30.519V31.4011ZM61.9923 27.0163V29.637C62.2991 30.1355 63.0022 30.5318 63.7053 30.5318C64.8559 30.5318 65.5718 29.6114 65.5718 28.3203C65.5718 27.0291 64.8559 26.0959 63.7053 26.0959C63.0022 26.0959 62.2991 26.5178 61.9923 27.0163Z" fill="#42DCD6"/>
<defs>
<linearGradient id="paint0_linear_1727_1829" x1="6.90029" y1="8.83651" x2="19.0137" y2="24.5303" gradientUnits="userSpaceOnUse">
<stop stop-color="#0091B5"/>
<stop offset="0.0001" stop-color="#044E60"/>
<stop offset="0.27" stop-color="#085768"/>
<stop offset="0.67" stop-color="#42DCD6"/>
</linearGradient>
<clipPath id="clip0_1727_1829">
<rect width="33.207" height="31.216" fill="white" transform="translate(0 2.09253)"/>
</clipPath>
</defs>
</svg>
