<svg width="109" height="37" viewBox="0 0 109 37" fill="none" xmlns="http://www.w3.org/2000/svg">
<path fill-rule="evenodd" clip-rule="evenodd" d="M16.0767 18.0595C16.0767 18.7256 16.1784 19.3679 16.3673 19.9718L8.18737 24.5552C7.31824 23.7158 6.1351 23.1993 4.83135 23.1993C2.16307 23.1993 1.16634e-07 25.3624 0 28.0307C-1.16634e-07 30.699 2.16307 32.862 4.83135 32.862C7.49963 32.862 9.6627 30.699 9.6627 28.0307C9.6627 27.6728 9.62378 27.3239 9.54994 26.9882L17.7616 22.387C18.9314 23.6608 20.6107 24.4592 22.4765 24.4592C26.011 24.4592 28.8763 21.594 28.8763 18.0595C28.8763 14.525 26.011 11.6597 22.4765 11.6597C20.6313 11.6597 18.9686 12.4405 17.8006 13.6898L9.59142 9.09001C9.63844 8.81942 9.66295 8.54111 9.66295 8.25707C9.66295 5.58879 7.49988 3.42572 4.8316 3.42572C2.16332 3.42572 0.000252751 5.58879 0.000252634 8.25707C0.000252518 10.9254 2.16332 13.0884 4.8316 13.0884C6.14956 13.0884 7.34427 12.5607 8.21593 11.705L16.3348 16.2542C16.1668 16.8267 16.0767 17.4326 16.0767 18.0595ZM4.77553 10.3521C5.91245 10.3521 6.83411 9.43047 6.83411 8.29355C6.83411 7.15663 5.91245 6.23498 4.77553 6.23498C3.63862 6.23498 2.71696 7.15663 2.71696 8.29355C2.71696 9.43047 3.63862 10.3521 4.77553 10.3521ZM25.0951 18.1244C25.0951 19.5861 23.9101 20.7711 22.4484 20.7711C20.9866 20.7711 19.8016 19.5861 19.8016 18.1244C19.8016 16.6626 20.9866 15.4777 22.4484 15.4777C23.9101 15.4777 25.0951 16.6626 25.0951 18.1244ZM4.69147 30.2293C5.82839 30.2293 6.75005 29.3076 6.75005 28.1707C6.75005 27.0338 5.82839 26.1121 4.69147 26.1121C3.55455 26.1121 2.6329 27.0338 2.6329 28.1707C2.6329 29.3076 3.55455 30.2293 4.69147 30.2293Z" fill="url(#paint0_linear_1727_1837)"/>
<path d="M46.5261 17.2216C42.9238 17.2216 40.0605 14.6354 40.0605 10.8484C40.0605 7.06137 42.9238 4.47513 46.5261 4.47513C49.334 4.47513 50.9042 5.95298 51.7725 7.48625L49.5187 8.59464C49.0015 7.59709 47.8931 6.80275 46.5261 6.80275C44.3832 6.80275 42.7575 8.52075 42.7575 10.8484C42.7575 13.176 44.3832 14.894 46.5261 14.894C47.8931 14.894 49.0015 14.1181 49.5187 13.1021L51.7725 14.192C50.8857 15.7253 49.334 17.2216 46.5261 17.2216ZM57.4164 17.2216C54.4792 17.2216 52.7058 15.0787 52.7058 12.5294C52.7058 9.99861 54.4792 7.85572 57.4164 7.85572C60.3721 7.85572 62.1456 9.99861 62.1456 12.5294C62.1456 15.0787 60.3721 17.2216 57.4164 17.2216ZM57.4164 15.1341C58.8758 15.1341 59.7071 13.9334 59.7071 12.5294C59.7071 11.1439 58.8758 9.94319 57.4164 9.94319C55.9571 9.94319 55.1442 11.1439 55.1442 12.5294C55.1442 13.9334 55.9571 15.1341 57.4164 15.1341ZM66.2322 16.9999H63.8861V4.67833H66.2322V16.9999ZM79.7902 16.9999H76.6498L73.5647 12.4925L70.4612 16.9999H67.3393L71.8098 10.6821L67.6164 4.67833H70.7383L73.5647 8.89022L76.3542 4.67833H79.5131L75.3197 10.6636L79.7902 16.9999ZM80.1037 15.2635L81.5446 13.2684C82.4128 14.1735 83.7614 14.9309 85.4609 14.9309C86.9018 14.9309 87.6038 14.2474 87.6038 13.5455C87.6038 12.6218 86.5323 12.3078 85.1099 11.9752C83.0963 11.5134 80.5101 10.9592 80.5101 8.20671C80.5101 6.15619 82.2835 4.4936 85.1838 4.4936C87.1419 4.4936 88.7676 5.08474 89.9868 6.2116L88.5274 8.13282C87.5299 7.20916 86.1998 6.78427 84.9991 6.78427C83.8168 6.78427 83.1887 7.30152 83.1887 8.04045C83.1887 8.87174 84.2232 9.13037 85.6456 9.46288C87.6777 9.92471 90.2639 10.5343 90.2639 13.2684C90.2639 15.5221 88.6567 17.2216 85.3316 17.2216C82.967 17.2216 81.2675 16.4273 80.1037 15.2635ZM91.5344 20.4914L91.8854 18.3854C92.0886 18.4778 92.4026 18.5332 92.6243 18.5332C93.2339 18.5332 93.6403 18.367 93.862 17.8867L94.1945 17.1293L90.5738 8.0774H93.0861L95.4137 14.2844L97.7414 8.0774H100.272L96.0788 18.4593C95.4137 20.1404 94.2315 20.5837 92.6982 20.6207C92.4211 20.6207 91.8299 20.5653 91.5344 20.4914ZM100.544 15.8361L101.56 14.192C102.206 14.8016 103.536 15.4112 104.645 15.4112C105.661 15.4112 106.141 15.0603 106.141 14.5061C106.141 13.878 105.365 13.6563 104.349 13.4531C102.816 13.1575 100.839 12.7881 100.839 10.6636C100.839 9.16731 102.151 7.85572 104.497 7.85572C106.012 7.85572 107.212 8.37297 108.081 9.07495L107.157 10.6821C106.621 10.1094 105.605 9.64762 104.515 9.64762C103.666 9.64762 103.111 9.96166 103.111 10.4789C103.111 11.0331 103.813 11.2363 104.811 11.4395C106.344 11.7351 108.395 12.1415 108.395 14.3583C108.395 16.0024 107.009 17.2216 104.534 17.2216C102.982 17.2216 101.486 16.7044 100.544 15.8361Z" fill="white"/>
<path d="M46.3968 32.2876H40.4197V23.3887H46.3968V24.5627H41.7538V27.1644H46.3034V28.3384H41.7538V31.1135H46.3968V32.2876ZM53.5912 32.2876H52.3904V28.165C52.3904 27.0977 51.8434 26.7508 51.0162 26.7508C50.2691 26.7508 49.5887 27.2044 49.2418 27.6847V32.2876H48.041V25.8435H49.2418V26.7508C49.6687 26.2305 50.5226 25.6834 51.5232 25.6834C52.8841 25.6834 53.5912 26.4039 53.5912 27.7647V32.2876ZM55.4403 33.942L56.014 33.0614C56.5476 33.6751 57.2014 33.9153 58.0819 33.9153C59.0826 33.9153 60.0832 33.435 60.0832 32.0741V31.2336C59.5895 31.874 58.8291 32.341 57.9619 32.341C56.2941 32.341 55.0934 31.1135 55.0934 29.0055C55.0934 26.9376 56.2941 25.6834 57.9619 25.6834C58.8024 25.6834 59.5629 26.0837 60.0832 26.7775V25.8435H61.2839V32.0341C61.2839 34.2488 59.6696 34.9026 58.0819 34.9026C57.0012 34.9026 56.2141 34.6758 55.4403 33.942ZM60.0832 30.313V27.698C59.7496 27.1777 59.0158 26.7508 58.2954 26.7508C57.0946 26.7508 56.3475 27.6847 56.3475 29.0055C56.3475 30.3397 57.0946 31.2736 58.2954 31.2736C59.0158 31.2736 59.7496 30.8333 60.0832 30.313ZM63.7808 24.7629C63.3672 24.7629 63.007 24.4293 63.007 24.0024C63.007 23.5754 63.3672 23.2286 63.7808 23.2286C64.2078 23.2286 64.5547 23.5754 64.5547 24.0024C64.5547 24.4293 64.2078 24.7629 63.7808 24.7629ZM64.3945 32.2876H63.1938V25.8435H64.3945V32.2876ZM71.8579 32.2876H70.6571V28.165C70.6571 27.0977 70.1101 26.7508 69.2829 26.7508C68.5358 26.7508 67.8554 27.2044 67.5085 27.6847V32.2876H66.3077V25.8435H67.5085V26.7508C67.9354 26.2305 68.7893 25.6834 69.7899 25.6834C71.1508 25.6834 71.8579 26.4039 71.8579 27.7647V32.2876ZM73.3601 29.0589C73.3601 27.1911 74.7076 25.6834 76.5888 25.6834C78.5233 25.6834 79.7241 27.1911 79.7241 29.1656V29.4591H74.6276C74.7209 30.5532 75.5214 31.4604 76.8156 31.4604C77.496 31.4604 78.2432 31.1936 78.7235 30.6999L79.2838 31.4871C78.6434 32.1142 77.7362 32.4477 76.6955 32.4477C74.7743 32.4477 73.3601 31.0868 73.3601 29.0589ZM76.5888 26.6707C75.2946 26.6707 74.6809 27.7114 74.6142 28.5919H78.55C78.5233 27.7381 77.9496 26.6707 76.5888 26.6707Z" fill="#42DCD6"/>
<defs>
<linearGradient id="paint0_linear_1727_1837" x1="6.0008" y1="9.1838" x2="17.6256" y2="23.0717" gradientUnits="userSpaceOnUse">
<stop stop-color="#0091B5"/>
<stop offset="0.5" stop-color="#044E60"/>
<stop offset="1" stop-color="#42DCD6"/>
</linearGradient>
</defs>
</svg>
